<?xml version="1.0" standalone="no"?>
<!DOCTYPE svg PUBLIC "-//W3C//DTD SVG 20010904//EN"
 "http://www.w3.org/TR/2001/REC-SVG-20010904/DTD/svg10.dtd">
<svg version="1.0" xmlns="http://www.w3.org/2000/svg"
 width="512.000000pt" height="512.000000pt" viewBox="0 0 512.000000 512.000000"
 preserveAspectRatio="xMidYMid meet">
<metadata>
Created by potrace 1.14, written by Peter Selinger 2001-2017
</metadata>
<g transform="translate(0.000000,512.000000) scale(0.100000,-0.100000)"
fill="#000000" stroke="none">
<path d="M1240 4625 c-281 -63 -647 -392 -964 -863 -114 -169 -195 -312 -237
-417 -39 -98 -46 -190 -30 -360 20 -205 74 -331 241 -570 120 -170 148 -233
256 -580 71 -230 111 -313 183 -386 73 -73 130 -93 245 -87 100 6 161 34 228
106 55 59 78 102 109 201 l22 75 22 -28 c39 -49 95 -174 109 -244 8 -37 18
-110 23 -163 8 -79 16 -110 47 -175 168 -355 655 -654 1066 -654 154 0 352 51
513 131 236 117 448 313 542 498 43 86 52 122 65 259 7 74 19 136 35 179 24
64 87 177 105 188 5 3 16 -21 25 -52 40 -139 117 -245 212 -293 38 -20 67 -26
139 -28 117 -5 173 17 244 95 63 69 106 160 164 348 111 357 149 445 266 610
167 239 221 365 241 570 16 170 9 262 -30 360 -101 253 -393 669 -651 925
-197 197 -393 320 -562 356 -151 32 -234 1 -419 -157 l-37 -31 -93 35 c-186
69 -464 136 -657 158 -77 9 -127 9 -204 0 -190 -21 -475 -90 -657 -158 l-93
-35 -37 31 c-186 159 -275 191 -431 156z m159 -342 c25 -21 78 -68 116 -105
71 -67 123 -98 169 -98 13 0 57 17 98 39 175 92 596 201 778 201 183 0 603
-109 778 -201 41 -22 85 -39 98 -39 48 0 96 30 190 118 52 49 110 97 128 107
32 17 35 17 90 0 222 -70 599 -467 850 -897 99 -169 106 -189 106 -303 0 -192
-34 -285 -176 -485 -49 -69 -114 -176 -146 -237 -52 -103 -73 -165 -200 -563
-17 -52 -39 -108 -50 -123 -19 -27 -21 -27 -39 -11 -10 9 -25 37 -33 63 -42
127 -46 322 -15 791 18 274 20 343 11 440 -25 249 -150 643 -301 944 -51 101
-60 113 -101 134 -24 12 -56 22 -70 22 -49 0 -113 -42 -138 -90 -32 -61 -26
-88 51 -260 112 -250 202 -520 232 -694 17 -103 19 -218 5 -406 -6 -74 -14
-203 -19 -286 l-9 -151 -85 -87 c-211 -215 -335 -463 -354 -704 -6 -78 -9 -87
-39 -117 -44 -45 -111 -65 -229 -72 -163 -9 -318 40 -380 121 -14 18 -25 37
-24 42 0 5 32 24 71 43 53 25 91 54 152 115 175 177 245 376 174 497 -34 57
-73 91 -151 130 -112 57 -193 72 -377 72 -184 0 -265 -15 -377 -72 -204 -102
-232 -251 -92 -488 54 -91 183 -214 267 -254 39 -19 71 -40 71 -47 1 -7 -19
-32 -42 -56 -75 -75 -208 -112 -367 -103 -114 7 -180 28 -224 72 -30 30 -33
39 -39 117 -10 124 -40 229 -102 353 -63 128 -141 235 -255 352 l-81 83 -5 68
c-41 586 -42 660 -13 809 25 134 118 416 194 588 104 237 108 250 101 288 -15
83 -102 148 -177 133 -73 -13 -97 -39 -159 -169 -149 -313 -261 -663 -290
-904 -13 -103 -10 -194 16 -563 30 -430 10 -695 -55 -754 -18 -16 -20 -16 -40
12 -11 16 -35 74 -51 128 -152 487 -193 581 -344 794 -142 200 -175 293 -176
485 0 94 2 105 34 170 201 419 659 936 908 1025 73 27 85 25 137 -17z m1339
-2384 c23 -6 42 -15 42 -20 0 -21 -100 -138 -144 -166 -59 -40 -89 -41 -147
-4 -57 35 -161 162 -147 177 3 2 34 11 69 19 73 17 257 13 327 -6z m-129 -889
c68 -42 152 -75 245 -95 96 -21 92 -27 -52 -76 -92 -32 -104 -33 -242 -33
-138 0 -150 1 -242 33 -144 49 -148 55 -52 76 88 19 200 63 254 100 19 13 36
24 37 24 2 1 25 -13 52 -29z"/>
<path d="M1710 3178 c-99 -53 -138 -173 -88 -268 53 -99 173 -138 268 -88 99
53 138 173 88 268 -53 99 -173 138 -268 88z"/>
<path d="M3230 3178 c-99 -53 -138 -173 -88 -268 53 -99 173 -138 268 -88 99
53 138 173 88 268 -53 99 -173 138 -268 88z"/>
</g>
</svg>
