<svg id="svg" version="1.1" xmlns="http://www.w3.org/2000/svg" xmlns:xlink="http://www.w3.org/1999/xlink" width="100%" height="100%" viewBox="0, 0, 400,400"><g id="svgg"><path id="path0" d="M194.922 32.074 C 187.527 32.825,179.991 35.794,173.047 40.691 C 169.926 42.892,169.915 42.893,165.234 41.772 C 147.111 37.431,127.745 45.429,117.432 61.513 C 115.597 64.376,114.170 65.730,112.678 66.024 C 90.199 70.452,75.843 84.356,73.091 104.367 C 72.589 108.015,72.321 108.387,68.740 110.400 C 56.210 117.443,47.656 132.784,47.656 148.211 L 47.656 154.688 200.000 154.688 L 352.344 154.688 352.344 148.211 C 352.344 132.872,344.627 118.821,331.643 110.515 C 327.949 108.152,327.431 107.487,326.972 104.515 C 323.803 84.021,309.831 70.457,287.322 66.024 C 285.830 65.730,284.403 64.376,282.568 61.513 C 272.255 45.429,252.889 37.431,234.766 41.772 C 230.085 42.893,230.074 42.892,226.953 40.691 C 217.098 33.740,206.525 30.896,194.922 32.074 M22.656 178.467 C 22.656 179.084,17.560 221.184,11.331 272.021 C 5.102 322.859,0.004 365.420,0.003 366.602 L 0.000 368.750 200.000 368.750 L 400.000 368.750 399.997 366.602 C 399.996 365.420,394.898 322.859,388.669 272.021 C 382.440 221.184,377.344 179.084,377.344 178.467 C 377.344 177.494,353.691 177.344,200.000 177.344 C 46.309 177.344,22.656 177.494,22.656 178.467 M119.922 214.483 C 129.616 215.738,141.532 224.135,146.890 233.488 L 149.609 238.235 200.000 238.235 L 250.391 238.235 253.110 233.488 C 277.267 191.318,342.575 224.404,322.911 268.851 L 320.965 273.248 322.599 276.451 C 333.039 296.915,320.951 323.627,298.106 330.576 C 280.920 335.803,260.660 327.313,252.640 311.523 L 250.755 307.813 200.000 307.813 L 149.245 307.813 147.360 311.523 C 141.104 323.841,127.366 332.039,113.004 332.025 C 84.643 331.999,65.669 303.056,77.089 277.243 L 79.035 272.846 77.401 269.643 C 64.737 244.820,87.831 209.988,114.453 213.756 C 115.313 213.878,117.773 214.205,119.922 214.483 M108.994 236.824 C 94.612 240.190,91.933 255.236,103.585 267.209 L 109.342 273.125 104.222 278.164 C 94.747 287.490,93.476 296.150,100.451 303.870 C 111.250 315.823,127.520 309.246,129.980 291.933 L 130.888 285.547 200.000 285.547 L 269.112 285.547 270.007 291.846 C 272.485 309.277,288.701 315.877,299.549 303.870 C 306.524 296.150,305.253 287.490,295.778 278.164 L 290.658 273.125 296.415 267.209 C 308.227 255.071,305.372 240.081,290.622 236.800 C 279.750 234.381,271.884 241.044,270.005 254.262 L 269.112 260.547 200.000 260.547 L 130.888 260.547 129.995 254.262 C 128.379 242.893,120.613 234.802,112.500 236.035 C 112.285 236.068,110.708 236.423,108.994 236.824 " stroke="currentColor" fill="currentColor" fill-rule="evenodd"></path></g></svg>