<svg id="svg" xmlns="http://www.w3.org/2000/svg" xmlns:xlink="http://www.w3.org/1999/xlink" width="100%" height="100%" viewBox="0, 0, 400,400"><g id="svgg"><path id="path0" d="M125.000 14.900 C 109.958 16.881,95.388 30.283,91.820 45.418 C 82.321 85.716,131.356 113.214,160.492 83.928 C 188.178 56.100,164.330 9.717,125.000 14.900 M91.237 94.978 C 57.242 101.749,35.620 120.823,5.838 170.313 C -3.839 186.393,-1.260 198.058,12.602 200.905 C 22.146 202.864,25.741 200.059,36.790 182.031 C 48.134 163.519,61.725 145.058,63.039 146.373 C 63.226 146.560,60.581 159.845,57.160 175.895 C 48.792 215.163,48.780 215.345,53.851 225.099 L 56.137 229.494 54.179 259.864 L 52.220 290.234 38.925 324.609 C 24.311 362.391,23.507 365.397,26.161 372.346 C 32.051 387.770,53.851 390.166,62.403 376.329 C 63.256 374.949,70.351 357.297,78.169 337.105 L 92.383 300.391 93.656 281.330 C 94.606 267.106,95.148 262.546,95.792 263.361 C 96.267 263.962,101.484 272.117,107.386 281.483 L 118.116 298.514 128.242 335.780 C 133.811 356.277,138.921 373.926,139.597 375.000 C 150.658 392.563,177.179 385.690,177.433 365.194 C 177.484 361.080,161.892 300.572,156.571 284.237 C 155.917 282.228,147.904 268.759,138.765 254.308 L 122.149 228.032 123.472 223.977 C 124.200 221.747,127.039 209.288,129.781 196.291 C 132.522 183.295,134.941 172.670,135.156 172.682 C 135.371 172.693,136.700 174.714,138.110 177.172 C 148.045 194.495,165.763 207.153,187.121 212.188 L 192.969 213.567 192.969 217.721 L 192.969 221.875 197.613 221.875 L 202.258 221.875 202.496 218.242 C 202.732 214.651,202.777 214.597,206.351 213.558 C 214.031 211.327,219.174 201.421,216.417 194.170 C 212.970 185.102,234.144 205.592,282.783 258.388 L 315.176 293.550 318.525 290.750 C 320.368 289.210,321.875 287.675,321.875 287.339 C 321.875 286.715,272.171 232.697,251.710 211.085 C 229.071 187.172,214.928 178.129,205.469 181.519 C 201.839 182.819,192.206 180.830,184.222 177.130 C 172.999 171.928,166.863 164.300,157.371 143.750 C 137.565 100.869,121.423 88.965,91.237 94.978 M352.443 249.113 C 351.293 250.344,349.704 253.420,348.912 255.949 C 347.050 261.892,345.383 264.798,334.510 281.067 C 328.976 289.346,325.775 294.832,326.223 295.270 C 327.058 296.086,358.126 313.932,359.892 314.610 C 360.605 314.883,362.383 313.751,364.497 311.675 L 367.941 308.295 372.838 310.011 C 387.181 315.035,400.000 309.682,400.000 298.668 C 400.000 294.557,396.979 291.715,387.052 286.488 C 380.044 282.797,378.932 281.893,375.017 276.691 C 372.644 273.539,369.303 269.921,367.592 268.652 L 364.482 266.344 364.732 260.932 C 365.256 249.571,358.281 242.863,352.443 249.113 M248.678 285.945 C 240.514 289.234,242.705 296.893,254.492 306.272 L 262.500 312.644 262.500 329.414 L 262.500 346.185 255.913 359.225 C 246.639 377.587,246.260 379.590,251.304 383.558 C 257.569 388.486,261.794 385.101,270.546 368.138 C 275.306 358.913,277.320 355.693,277.875 356.420 C 278.296 356.971,281.767 362.871,285.589 369.531 C 294.013 384.210,294.857 385.156,299.530 385.156 C 309.624 385.156,310.190 377.923,301.291 362.659 C 297.961 356.946,295.040 351.760,294.800 351.136 C 294.424 350.157,297.730 350.000,318.666 350.000 L 342.969 350.000 342.969 365.294 L 342.969 380.589 345.252 382.873 C 348.969 386.589,355.404 385.778,358.074 381.258 C 359.225 379.309,359.375 375.698,359.375 349.867 L 359.375 320.678 340.717 309.948 L 322.060 299.219 297.553 299.216 L 273.047 299.213 265.625 293.278 C 255.311 285.031,253.207 284.121,248.678 285.945 " stroke="currentColor" fill="currentColor" fill-rule="evenodd"></path></g></svg>