<svg id="svg" xmlns="http://www.w3.org/2000/svg" xmlns:xlink="http://www.w3.org/1999/xlink" width="100%" height="100%" viewBox="0, 0, 400,400"><g id="svgg"><path id="path0" d="M24.407 20.308 C 18.471 23.928,18.754 21.157,18.770 75.391 C 18.783 120.914,18.872 124.016,20.234 126.953 C 26.819 141.144,48.181 141.144,54.766 126.953 C 56.059 124.165,56.218 121.637,56.233 103.530 L 56.250 83.233 103.711 130.568 C 147.947 174.686,151.425 177.971,154.903 178.902 C 170.149 182.987,182.987 170.149,178.902 154.903 C 177.971 151.425,174.686 147.947,130.568 103.711 L 83.233 56.250 103.530 56.233 C 121.637 56.218,124.165 56.059,126.953 54.766 C 141.144 48.181,141.144 26.819,126.953 20.234 C 121.934 17.905,28.237 17.973,24.407 20.308 M273.047 20.234 C 258.624 26.926,258.979 48.937,273.608 55.039 C 275.976 56.026,280.226 56.250,296.640 56.250 L 316.767 56.250 269.432 103.711 C 225.314 147.947,222.029 151.425,221.098 154.903 C 217.027 170.100,229.900 182.973,245.097 178.902 C 248.575 177.971,252.053 174.686,296.289 130.568 L 343.750 83.233 343.767 103.530 C 343.782 121.637,343.941 124.165,345.234 126.953 C 351.926 141.376,373.937 141.021,380.039 126.392 C 381.089 123.874,381.250 117.061,381.247 75.220 C 381.244 21.182,381.526 23.926,375.593 20.308 C 371.763 17.973,278.066 17.905,273.047 20.234 M152.344 222.325 C 150.597 223.073,132.756 240.337,102.930 270.144 L 56.250 316.792 56.250 296.652 C 56.250 274.418,56.006 273.000,51.328 268.069 C 44.144 260.498,30.856 260.498,23.672 268.069 C 18.589 273.427,18.750 271.574,18.753 324.780 C 18.756 378.818,18.474 376.074,24.407 379.692 C 27.913 381.829,121.337 382.147,126.392 380.039 C 141.267 373.835,141.267 351.165,126.392 344.961 C 124.024 343.973,119.774 343.750,103.354 343.750 L 83.221 343.750 130.196 296.680 C 180.895 245.879,179.149 247.923,179.073 239.460 C 178.953 226.131,164.740 217.020,152.344 222.325 M235.151 221.824 C 224.853 224.956,219.379 234.688,221.870 245.433 C 222.829 249.569,223.296 250.068,269.803 296.680 L 316.767 343.750 296.640 343.750 C 280.226 343.750,275.976 343.974,273.608 344.961 C 258.733 351.165,258.733 373.835,273.608 380.039 C 278.663 382.147,372.087 381.829,375.593 379.692 C 381.526 376.074,381.244 378.818,381.247 324.780 C 381.250 271.574,381.411 273.427,376.328 268.069 C 369.144 260.498,355.856 260.498,348.672 268.069 C 343.995 272.999,343.750 274.419,343.750 296.640 L 343.750 316.767 296.680 269.814 C 243.676 216.942,245.787 218.588,235.151 221.824 " stroke="currentColor" fill="currentColor" fill-rule="evenodd"></path></g></svg>