<svg id="svg" xmlns="http://www.w3.org/2000/svg" xmlns:xlink="http://www.w3.org/1999/xlink" width="100%" height="100%" viewBox="0, 0, 400,400"><g id="svgg"><path id="path0" d="M192.763 2.306 C 188.270 5.156,188.809 4.414,162.928 43.359 C 55.763 204.620,39.267 254.726,71.619 320.717 C 123.302 426.140,276.698 426.140,328.381 320.717 C 355.613 265.169,347.221 222.785,289.863 126.172 C 272.788 97.412,219.000 14.581,211.985 6.245 C 206.404 -0.389,199.306 -1.843,192.763 2.306 M311.838 247.739 C 318.903 251.289,321.489 257.621,320.267 268.377 C 316.010 305.843,295.437 339.465,264.844 358.955 C 252.772 366.645,242.863 365.625,237.534 356.143 C 231.706 345.774,234.455 338.707,247.721 329.959 C 270.371 315.023,283.632 293.333,287.039 265.646 C 289.137 248.600,299.155 241.366,311.838 247.739 " stroke="currentColor" fill="currentColor" fill-rule="evenodd"></path></g></svg>